<svg xmlns="http://www.w3.org/2000/svg" xmlns:xlink="http://www.w3.org/1999/xlink" width="1080" zoomAndPan="magnify" viewBox="0 0 810 809.999993" height="1080" preserveAspectRatio="xMidYMid meet" version="1.0"><defs><g/><clipPath id="cb05eda9fb"><path d="M 0.414062 8.835938 L 809.585938 8.835938 L 809.585938 800.835938 L 0.414062 800.835938 Z M 0.414062 8.835938 " clip-rule="nonzero"/></clipPath><clipPath id="e0fd700684"><path d="M 61.804688 61.804688 L 729 61.804688 L 729 729 L 61.804688 729 Z M 61.804688 61.804688 " clip-rule="nonzero"/></clipPath><clipPath id="828a66a54b"><path d="M 395.402344 61.804688 C 211.160156 61.804688 61.804688 211.160156 61.804688 395.402344 C 61.804688 579.644531 211.160156 729 395.402344 729 C 579.644531 729 729 579.644531 729 395.402344 C 729 211.160156 579.644531 61.804688 395.402344 61.804688 Z M 395.402344 61.804688 " clip-rule="nonzero"/></clipPath></defs><g clip-path="url(#cb05eda9fb)"><path fill="#fe705a" d="M 0.414062 254.511719 C 0.414062 149.671875 65.085938 55.144531 166.9375 30.140625 C 337.335938 -11.691406 594.527344 -46.152344 721.132812 80.402344 C 828.003906 187.234375 820.097656 387.070312 789.867188 549.222656 C 761.042969 703.816406 617.1875 800.835938 459.867188 800.835938 L 126.847656 800.835938 C 57.019531 800.835938 0.414062 744.253906 0.414062 674.453125 Z M 0.414062 254.511719 " fill-opacity="1" fill-rule="nonzero"/></g><path fill="#ffffff" d="M 503.429688 546.007812 C 504.152344 545.648438 504.878906 541.121094 505.601562 532.4375 C 506.6875 523.386719 507.773438 512.894531 508.859375 500.949219 C 509.949219 489.007812 510.851562 476.703125 511.578125 464.035156 C 512.300781 451.367188 512.84375 440.875 513.207031 432.550781 C 513.207031 427.84375 513.207031 421.148438 513.207031 412.464844 C 513.566406 403.777344 513.75 394.1875 513.75 383.691406 C 513.75 372.835938 513.75 361.613281 513.75 350.035156 C 514.109375 338.453125 514.109375 327.59375 513.75 317.460938 C 513.75 306.96875 513.566406 297.738281 513.207031 289.777344 C 513.207031 281.8125 513.207031 276.023438 513.207031 272.402344 C 513.207031 270.957031 512.664062 268.421875 511.578125 264.800781 C 510.851562 261.183594 509.949219 257.382812 508.859375 253.402344 C 508.136719 249.421875 507.230469 245.804688 506.148438 242.546875 C 505.058594 238.925781 504.152344 236.394531 503.429688 234.945312 C 490.757812 233.859375 477.90625 234.582031 464.871094 237.117188 C 451.835938 239.652344 438.984375 242.546875 426.3125 245.804688 C 413.640625 249.058594 400.96875 251.773438 388.296875 253.945312 C 375.988281 256.117188 364.21875 256.117188 352.996094 253.945312 C 350.097656 247.792969 352.816406 241.640625 361.140625 235.488281 C 369.832031 228.972656 382.324219 223.363281 398.617188 218.660156 C 414.90625 213.59375 433.914062 209.613281 455.640625 206.714844 C 477.363281 203.460938 499.808594 202.011719 522.980469 202.375 C 546.152344 202.734375 568.960938 205.269531 591.410156 209.972656 C 613.859375 214.316406 633.949219 221.554688 651.691406 231.691406 C 669.433594 241.460938 683.734375 254.308594 694.59375 270.234375 C 705.457031 286.15625 710.886719 305.878906 710.886719 329.402344 C 710.886719 337.730469 709.4375 346.59375 706.542969 356.003906 C 703.648438 365.414062 699.847656 374.824219 695.140625 384.234375 C 690.792969 393.644531 685.726562 402.691406 679.933594 411.378906 C 674.5 419.699219 669.070312 426.757812 663.640625 432.550781 C 661.105469 435.445312 656.941406 439.96875 651.148438 446.121094 C 645.355469 451.910156 638.65625 458.605469 631.054688 466.207031 C 623.8125 473.808594 616.027344 481.769531 607.703125 490.09375 C 599.375 498.054688 591.410156 505.835938 583.804688 513.4375 C 576.566406 520.675781 569.867188 527.1875 563.710938 532.980469 C 557.917969 538.769531 553.574219 543.113281 550.679688 546.007812 C 549.59375 554.695312 548.144531 562.65625 546.335938 569.894531 C 544.523438 577.132812 541.808594 582.742188 538.1875 586.722656 C 534.566406 590.703125 529.859375 592.511719 524.066406 592.152344 C 518.636719 592.152344 511.757812 589.257812 503.429688 583.464844 C 495.464844 588.894531 486.957031 596.496094 477.90625 606.265625 C 469.214844 616.398438 460.164062 625.992188 450.75 635.039062 C 441.335938 644.449219 431.5625 651.867188 421.425781 657.296875 C 411.285156 662.726562 401.148438 663.269531 391.011719 658.925781 L 391.011719 639.925781 Z M 550.679688 508.007812 C 573.488281 498.597656 593.582031 484.84375 610.960938 466.75 C 628.703125 448.292969 642.640625 428.207031 652.777344 406.492188 C 663.277344 384.777344 669.613281 362.878906 671.785156 340.804688 C 673.957031 318.367188 671.242188 298.644531 663.640625 281.632812 C 656.035156 264.625 643.003906 251.59375 624.539062 242.546875 C 606.433594 233.136719 581.816406 230.601562 550.679688 234.945312 Z M 550.679688 508.007812 " fill-opacity="1" fill-rule="nonzero"/><path fill="#ffffff" d="M 171.941406 580.203125 C 171.582031 573.691406 171.039062 563.917969 170.3125 550.890625 C 169.953125 537.496094 169.40625 522.480469 168.683594 505.832031 C 168.324219 488.820312 167.777344 471.089844 167.054688 452.632812 C 166.332031 434.175781 165.605469 416.621094 164.882812 399.972656 C 164.519531 383.324219 164.160156 368.488281 163.796875 355.457031 C 163.433594 342.066406 163.253906 332.117188 163.253906 325.601562 C 163.253906 323.429688 163.070312 319.808594 162.710938 314.742188 C 162.710938 309.3125 162.710938 303.703125 162.710938 297.914062 C 162.710938 291.761719 162.710938 285.96875 162.710938 280.542969 C 163.070312 275.113281 163.253906 271.3125 163.253906 269.144531 C 158.910156 271.3125 153.660156 275.113281 147.503906 280.542969 C 141.710938 285.96875 135.375 291.941406 128.496094 298.457031 C 121.617188 304.609375 114.558594 310.398438 107.316406 315.828125 C 100.4375 320.894531 93.917969 324.152344 87.765625 325.601562 C 79.4375 320.535156 75.636719 314.382812 76.359375 307.140625 C 77.085938 299.542969 81.066406 291.582031 88.308594 283.257812 C 95.910156 274.570312 105.867188 265.703125 118.175781 256.65625 C 130.847656 247.609375 144.605469 238.921875 159.453125 230.601562 C 174.660156 222.273438 190.226562 214.671875 206.15625 207.796875 C 222.085938 200.921875 237.113281 195.3125 251.234375 190.972656 C 265.714844 186.265625 278.386719 183.371094 289.246094 182.285156 C 300.472656 180.835938 308.800781 181.558594 314.230469 184.453125 C 324.367188 194.949219 329.253906 207.980469 328.890625 223.539062 C 328.53125 239.105469 325.089844 255.75 318.574219 273.484375 C 312.058594 291.21875 303.550781 309.675781 293.050781 328.855469 C 282.550781 348.039062 272.410156 366.675781 262.636719 384.773438 C 252.863281 402.503906 244.535156 419.335938 237.65625 435.257812 C 230.777344 450.820312 227.519531 464.210938 227.878906 475.429688 C 228.242188 486.648438 233.492188 494.972656 243.628906 500.402344 C 253.765625 505.832031 270.964844 507.097656 295.222656 504.203125 C 307.53125 501.308594 320.382812 496.785156 333.78125 490.632812 C 347.179688 484.117188 360.210938 477.058594 372.882812 469.457031 C 385.554688 461.496094 397.320312 453.171875 408.183594 444.488281 C 419.40625 435.800781 428.820312 427.660156 436.421875 420.058594 C 449.09375 423.316406 456.15625 428.019531 457.601562 434.175781 C 459.050781 440.328125 456.515625 447.203125 450 454.804688 C 443.847656 462.402344 434.433594 470.363281 421.761719 478.691406 C 409.089844 487.011719 394.789062 495.15625 378.855469 503.117188 C 362.925781 510.71875 346.273438 517.59375 328.890625 523.746094 C 311.875 529.898438 295.402344 534.601562 279.472656 537.859375 C 263.902344 541.117188 249.785156 542.566406 237.113281 542.203125 C 224.804688 541.84375 215.75 538.765625 209.957031 532.976562 C 209.957031 535.148438 209.777344 538.945312 209.414062 544.375 C 209.050781 549.804688 208.328125 555.59375 207.242188 561.75 C 206.15625 567.535156 204.34375 573.144531 201.8125 578.574219 C 199.277344 583.640625 195.65625 587.261719 190.953125 589.433594 C 186.96875 591.242188 183.167969 590.878906 179.546875 588.347656 C 176.285156 585.8125 173.753906 583.101562 171.941406 580.203125 Z M 200.726562 460.773438 L 300.652344 237.65625 C 298.117188 229.332031 293.773438 223.539062 287.621094 220.285156 C 281.824219 216.664062 275.128906 215.035156 267.523438 215.398438 C 259.921875 215.398438 252.136719 217.027344 244.171875 220.285156 C 236.207031 223.539062 228.785156 227.523438 221.90625 232.226562 C 215.390625 236.570312 209.957031 241.457031 205.613281 246.882812 C 201.269531 251.953125 199.097656 256.65625 199.097656 261 Z M 200.726562 460.773438 " fill-opacity="1" fill-rule="nonzero"/><g clip-path="url(#e0fd700684)"><g clip-path="url(#828a66a54b)"><path fill="#fe705a" d="M 61.804688 61.804688 L 729 61.804688 L 729 729 L 61.804688 729 Z M 61.804688 61.804688 " fill-opacity="1" fill-rule="nonzero"/></g></g><g fill="#ffffff" fill-opacity="1"><g transform="translate(22.746944, 465.527197)"><g><path d="M 327.40625 -252.359375 C 333.863281 -237.835938 335.175781 -222.304688 331.34375 -205.765625 C 327.507812 -189.222656 319.132812 -175.707031 306.21875 -165.21875 C 299.769531 -160.375 293.921875 -157.546875 288.671875 -156.734375 C 283.429688 -155.929688 278.59375 -159.363281 274.15625 -167.03125 C 273.34375 -169.445312 274.445312 -171.5625 277.46875 -173.375 C 280.5 -175.195312 284.03125 -178.125 288.0625 -182.15625 C 293.71875 -187.8125 298.054688 -192.859375 301.078125 -197.296875 C 304.109375 -201.734375 306.226562 -208.390625 307.4375 -217.265625 C 308.238281 -222.109375 308.4375 -226.847656 308.03125 -231.484375 C 307.632812 -236.117188 306.222656 -240.859375 303.796875 -245.703125 C 301.785156 -250.140625 298.457031 -253.671875 293.8125 -256.296875 C 289.175781 -258.921875 285.242188 -260.429688 282.015625 -260.828125 L 271.125 -262.046875 C 269.507812 -260.835938 267.1875 -260.332031 264.15625 -260.53125 C 261.132812 -260.726562 259.625 -260.828125 259.625 -260.828125 C 258.007812 -260.429688 254.175781 -259.625 248.125 -258.40625 C 242.070312 -257.195312 236.320312 -255.882812 230.875 -254.46875 C 225.425781 -253.0625 222.300781 -251.550781 221.5 -249.9375 C 220.289062 -249.132812 219.28125 -248.429688 218.46875 -247.828125 C 217.664062 -247.222656 216.660156 -246.515625 215.453125 -245.703125 C 213.023438 -244.085938 210.195312 -243.28125 206.96875 -243.28125 C 204.144531 -243.28125 202.128906 -241.265625 200.921875 -237.234375 L 186.390625 -226.34375 C 181.953125 -222.300781 174.082031 -216.75 162.78125 -209.6875 C 151.488281 -202.632812 141.8125 -192.25 133.75 -178.53125 C 126.082031 -164.8125 124.769531 -151.898438 129.8125 -139.796875 C 134.851562 -127.691406 142.414062 -117.601562 152.5 -109.53125 C 157.75 -105.90625 163.097656 -102.578125 168.546875 -99.546875 C 173.992188 -96.523438 179.335938 -93.398438 184.578125 -90.171875 C 186.597656 -88.554688 188.71875 -87.242188 190.9375 -86.234375 C 193.15625 -85.222656 195.273438 -84.113281 197.296875 -82.90625 C 208.585938 -77.257812 219.375 -71.003906 229.65625 -64.140625 C 239.945312 -57.285156 249.734375 -49.828125 259.015625 -41.765625 C 272.734375 -29.660156 283.425781 -14.53125 291.09375 3.625 C 293.914062 11.289062 294.722656 18.351562 293.515625 24.8125 C 292.304688 31.269531 289.6875 37.320312 285.65625 42.96875 C 279.601562 51.4375 270.925781 59.203125 259.625 66.265625 C 248.332031 73.328125 235.925781 79.28125 222.40625 84.125 C 208.882812 88.96875 195.671875 92.394531 182.765625 94.40625 C 169.859375 96.425781 156.847656 97.332031 143.734375 97.125 C 130.617188 96.925781 117.609375 95.816406 104.703125 93.796875 C 82.503906 89.765625 64.75 80.585938 51.4375 66.265625 C 38.125 51.941406 31.066406 34.289062 30.265625 13.3125 C 30.265625 9.6875 32.179688 4.945312 36.015625 -0.90625 C 39.847656 -6.757812 44.382812 -12.710938 49.625 -18.765625 C 54.875 -24.816406 59.613281 -29.957031 63.84375 -34.1875 C 68.082031 -38.425781 70.601562 -40.75 71.40625 -41.15625 C 76.25 -43.570312 81.09375 -43.769531 85.9375 -41.75 C 90.78125 -39.738281 94.207031 -37.015625 96.21875 -33.578125 C 98.238281 -30.148438 97.429688 -27.832031 93.796875 -26.625 C 83.710938 -23.800781 75.238281 -19.0625 68.375 -12.40625 C 61.519531 -5.75 57.691406 3.425781 56.890625 15.125 C 56.484375 24 57.992188 34.1875 61.421875 45.6875 C 64.859375 57.1875 70.8125 65.5625 79.28125 70.8125 C 90.976562 77.664062 102.878906 81.5 114.984375 82.3125 C 121.847656 82.707031 128.804688 82.703125 135.859375 82.296875 C 142.921875 81.898438 149.882812 81.097656 156.75 79.890625 C 173.289062 77.460938 189.023438 72.816406 203.953125 65.953125 C 218.878906 59.097656 231.585938 52.242188 242.078125 45.390625 C 250.546875 40.140625 257.804688 32.675781 263.859375 23 C 267.085938 17.75 269.207031 12.300781 270.21875 6.65625 C 271.226562 1.007812 270.117188 -5.039062 266.890625 -11.5 C 264.460938 -17.144531 261.234375 -22.285156 257.203125 -26.921875 C 253.171875 -31.566406 248.9375 -35.90625 244.5 -39.9375 C 236.832031 -47.195312 228.359375 -53.753906 219.078125 -59.609375 C 209.796875 -65.460938 200.316406 -70.609375 190.640625 -75.046875 C 184.179688 -78.273438 177.820312 -81.90625 171.5625 -85.9375 C 165.3125 -89.96875 159.160156 -94.003906 153.109375 -98.046875 C 147.867188 -101.265625 140.707031 -106.707031 131.625 -114.375 C 122.550781 -122.039062 115.796875 -130.921875 111.359375 -141.015625 C 101.671875 -162.796875 103.082031 -182.96875 115.59375 -201.53125 C 118.820312 -206.769531 122.453125 -211.507812 126.484375 -215.75 C 130.515625 -219.988281 134.953125 -223.921875 139.796875 -227.546875 C 146.253906 -232.390625 152.507812 -236.925781 158.5625 -241.15625 C 164.613281 -245.394531 171.066406 -249.128906 177.921875 -252.359375 C 195.671875 -260.429688 210.09375 -266.484375 221.1875 -270.515625 C 232.289062 -274.554688 244.09375 -277.179688 256.59375 -278.390625 C 265.875 -279.191406 276.265625 -278.988281 287.765625 -277.78125 C 299.265625 -276.570312 308.644531 -273.144531 315.90625 -267.5 C 320.75 -263.863281 324.582031 -258.816406 327.40625 -252.359375 Z M 327.40625 -252.359375 "/></g></g></g><g fill="#ffffff" fill-opacity="1"><g transform="translate(362.858722, 465.527197)"><g><path d="M 354.03125 -64.75 C 354.4375 -64.351562 354.132812 -63.953125 353.125 -63.546875 C 352.113281 -63.140625 351.003906 -63.140625 349.796875 -63.546875 L 338.90625 -66.578125 L 334.0625 -68.984375 L 322.5625 -70.8125 L 308.046875 -75.046875 L 304.40625 -75.640625 L 283.828125 -77.46875 L 279.59375 -64.15625 C 280 -62.132812 279.695312 -59.40625 278.6875 -55.96875 C 277.675781 -52.539062 277.171875 -49.820312 277.171875 -47.8125 L 273.546875 -38.734375 L 272.328125 -33.28125 C 271.929688 -32.882812 271.53125 -31.773438 271.125 -29.953125 C 270.71875 -28.140625 270.515625 -27.03125 270.515625 -26.625 L 269.3125 -15.734375 C 268.90625 -13.316406 268.398438 -11 267.796875 -8.78125 C 267.191406 -6.5625 266.6875 -4.441406 266.28125 -2.421875 L 265.671875 7.875 C 265.273438 13.113281 265.175781 18.554688 265.375 24.203125 C 265.570312 29.859375 266.679688 35.507812 268.703125 41.15625 C 269.109375 43.976562 270.21875 46.898438 272.03125 49.921875 C 273.84375 52.953125 275.757812 55.476562 277.78125 57.5 C 283.03125 62.738281 288.78125 64.953125 295.03125 64.140625 C 301.28125 63.335938 305.210938 61.726562 306.828125 59.3125 L 308.640625 61.125 C 305.816406 65.15625 302.585938 68.582031 298.953125 71.40625 C 295.328125 74.226562 291.09375 75.84375 286.25 76.25 C 272.9375 77.863281 263.050781 75.539062 256.59375 69.28125 C 250.144531 63.03125 245.304688 53.65625 242.078125 41.15625 C 240.460938 36.3125 239.65625 30.257812 239.65625 23 C 239.65625 15.738281 239.859375 9.6875 240.265625 4.84375 L 242.078125 -7.875 C 242.878906 -13.519531 243.785156 -18.660156 244.796875 -23.296875 C 245.804688 -27.941406 246.710938 -32.882812 247.515625 -38.125 C 248.328125 -42.5625 250.039062 -49.015625 252.65625 -57.484375 C 255.28125 -65.960938 257 -72.421875 257.8125 -76.859375 L 254.171875 -78.0625 L 248.734375 -78.0625 L 218.46875 -79.890625 L 179.734375 -79.890625 L 164.609375 -80.484375 C 163.398438 -80.890625 162.085938 -80.988281 160.671875 -80.78125 C 159.265625 -80.582031 157.550781 -80.484375 155.53125 -80.484375 C 154.320312 -80.484375 153.113281 -80.28125 151.90625 -79.875 C 150.695312 -79.476562 149.285156 -79.484375 147.671875 -79.890625 C 147.671875 -79.484375 144.441406 -76.050781 137.984375 -69.59375 C 137.171875 -67.976562 136.765625 -67.171875 136.765625 -67.171875 C 133.941406 -63.546875 131.820312 -60.21875 130.40625 -57.1875 C 129 -54.164062 127.085938 -51.039062 124.671875 -47.8125 L 120.4375 -44.78125 C 120.4375 -41.957031 119.929688 -40.140625 118.921875 -39.328125 C 117.910156 -38.523438 116.394531 -37.316406 114.375 -35.703125 C 113.976562 -35.296875 113.472656 -34.992188 112.859375 -34.796875 C 112.253906 -34.597656 112.15625 -33.894531 112.5625 -32.6875 C 111.351562 -31.46875 110.75 -30.859375 110.75 -30.859375 C 108.332031 -30.460938 106.71875 -28.242188 105.90625 -24.203125 C 105.90625 -22.585938 105.601562 -21.476562 105 -20.875 C 104.394531 -20.269531 103.6875 -19.566406 102.875 -18.765625 C 100.050781 -16.335938 98.238281 -13.710938 97.4375 -10.890625 L 88.359375 -1.8125 C 88.359375 -1.40625 88.15625 -1.203125 87.75 -1.203125 C 87.34375 -1.203125 87.140625 -1.203125 87.140625 -1.203125 L 85.328125 2.421875 C 85.328125 4.835938 85.125 6.25 84.71875 6.65625 C 83.507812 7.46875 82.703125 8.375 82.296875 9.375 C 81.898438 10.382812 81.296875 11.296875 80.484375 12.109375 C 79.273438 14.523438 77.660156 15.128906 75.640625 13.921875 L 76.859375 17.546875 C 76.046875 20.367188 74.734375 22.285156 72.921875 23.296875 C 71.109375 24.304688 69.191406 25.210938 67.171875 26.015625 L 67.171875 27.234375 C 66.367188 28.847656 65.765625 30.460938 65.359375 32.078125 C 64.953125 33.691406 64.550781 35.304688 64.15625 36.921875 C 63.75 37.316406 63.242188 38.320312 62.640625 39.9375 C 62.035156 41.550781 61.328125 42.765625 60.515625 43.578125 C 58.097656 47.203125 56.484375 50.023438 55.671875 52.046875 L 55.078125 56.28125 L 53.25 60.515625 L 46 75.046875 C 45.59375 77.460938 44.679688 80.988281 43.265625 85.625 C 41.859375 90.269531 41.15625 93.601562 41.15625 95.625 L 38.734375 108.9375 L 36.921875 118.015625 C 36.515625 119.222656 36.410156 120.332031 36.609375 121.34375 C 36.816406 122.351562 36.71875 123.257812 36.3125 124.0625 C 36.3125 124.875 36.207031 125.582031 36 126.1875 C 35.800781 126.789062 35.703125 127.492188 35.703125 128.296875 C 34.085938 127.492188 33.082031 126.890625 32.6875 126.484375 C 31.070312 119.628906 30.265625 113.175781 30.265625 107.125 C 30.265625 101.070312 30.664062 94.613281 31.46875 87.75 C 33.082031 79.675781 35.300781 72.007812 38.125 64.75 C 40.945312 57.488281 43.570312 50.226562 46 42.96875 C 47.207031 40.945312 48.414062 38.828125 49.625 36.609375 C 50.832031 34.390625 51.640625 32.472656 52.046875 30.859375 C 52.046875 30.859375 53.351562 28.738281 55.96875 24.5 C 58.59375 20.269531 60.3125 16.539062 61.125 13.3125 L 62.9375 8.46875 L 65.96875 6.046875 C 66.769531 4.035156 67.472656 2.523438 68.078125 1.515625 C 68.679688 0.503906 68.984375 -0.203125 68.984375 -0.609375 L 73.828125 -7.265625 L 81.09375 -18.15625 C 81.90625 -19.769531 82.8125 -21.484375 83.8125 -23.296875 C 84.820312 -25.109375 85.929688 -26.820312 87.140625 -28.4375 L 102.875 -53.25 C 103.6875 -54.863281 104.695312 -56.273438 105.90625 -57.484375 C 107.113281 -58.703125 108.320312 -60.117188 109.53125 -61.734375 L 112.5625 -67.171875 L 120.4375 -78.0625 C 119.21875 -78.0625 116.789062 -77.960938 113.15625 -77.765625 C 109.53125 -77.566406 107.316406 -77.265625 106.515625 -76.859375 L 92.59375 -76.859375 C 88.5625 -76.859375 84.929688 -76.65625 81.703125 -76.25 C 78.472656 -75.84375 75.039062 -75.441406 71.40625 -75.046875 C 69.789062 -75.847656 68.273438 -76.046875 66.859375 -75.640625 C 65.453125 -75.242188 63.742188 -75.242188 61.734375 -75.640625 C 60.117188 -76.453125 58.300781 -79.378906 56.28125 -84.421875 C 54.257812 -89.460938 54.460938 -93.394531 56.890625 -96.21875 C 60.117188 -98.644531 62.738281 -99.859375 64.75 -99.859375 C 72.820312 -100.660156 80.488281 -101.0625 87.75 -101.0625 C 95.007812 -101.0625 102.269531 -101.265625 109.53125 -101.671875 C 113.976562 -102.078125 117.8125 -102.28125 121.03125 -102.28125 C 124.257812 -102.28125 127.894531 -102.28125 131.9375 -102.28125 L 136.765625 -104.703125 C 139.191406 -104.296875 140.90625 -105.203125 141.90625 -107.421875 C 142.914062 -109.640625 144.226562 -111.148438 145.84375 -111.953125 C 147.0625 -113.171875 148.375 -114.484375 149.78125 -115.890625 C 151.195312 -117.304688 152.304688 -118.820312 153.109375 -120.4375 C 153.515625 -122.050781 154.421875 -123.257812 155.828125 -124.0625 C 157.242188 -124.875 158.15625 -126.082031 158.5625 -127.6875 C 169.050781 -139.394531 179.132812 -150.390625 188.8125 -160.671875 C 198.5 -170.960938 208.382812 -181.351562 218.46875 -191.84375 C 229.363281 -203.144531 238.539062 -213.429688 246 -222.703125 C 253.46875 -231.984375 262.648438 -241.265625 273.546875 -250.546875 L 282.625 -256 L 294.125 -268.703125 C 296.132812 -271.117188 298.148438 -273.132812 300.171875 -274.75 C 302.191406 -276.363281 304.410156 -276.972656 306.828125 -276.578125 C 308.441406 -275.765625 309.25 -275.960938 309.25 -277.171875 C 312.882812 -279.597656 316.3125 -280.609375 319.53125 -280.203125 C 319.53125 -280.203125 320.335938 -279.796875 321.953125 -278.984375 C 323.566406 -277.378906 325.28125 -276.171875 327.09375 -275.359375 C 328.914062 -274.554688 331.035156 -273.75 333.453125 -272.9375 C 337.085938 -271.320312 338.300781 -268.5 337.09375 -264.46875 C 337.488281 -263.65625 337.6875 -262.441406 337.6875 -260.828125 L 335.28125 -254.78125 C 334.875 -253.164062 334.367188 -251.550781 333.765625 -249.9375 C 333.160156 -248.320312 333.054688 -246.507812 333.453125 -244.5 C 333.859375 -242.882812 334.566406 -241.269531 335.578125 -239.65625 C 336.585938 -238.039062 336.082031 -236.425781 334.0625 -234.8125 C 333.257812 -234.007812 332.859375 -232.597656 332.859375 -230.578125 C 331.640625 -226.546875 330.523438 -223.015625 329.515625 -219.984375 C 328.515625 -216.960938 327.609375 -213.835938 326.796875 -210.609375 C 325.992188 -207.785156 325.1875 -205.265625 324.375 -203.046875 C 323.570312 -200.828125 322.96875 -198.707031 322.5625 -196.6875 C 320.945312 -193.863281 319.738281 -190.429688 318.9375 -186.390625 L 310.46875 -155.53125 L 308.046875 -150.09375 C 307.234375 -147.257812 306.320312 -144.429688 305.3125 -141.609375 C 304.300781 -138.785156 302.992188 -136.164062 301.390625 -133.75 C 301.390625 -132.132812 301.1875 -130.519531 300.78125 -128.90625 C 300.375 -127.289062 299.96875 -125.878906 299.5625 -124.671875 C 298.351562 -122.242188 297.445312 -119.921875 296.84375 -117.703125 C 296.238281 -115.484375 295.53125 -113.164062 294.71875 -110.75 C 293.914062 -108.332031 293.113281 -106.71875 292.3125 -105.90625 L 289.28125 -96.828125 L 307.4375 -93.203125 C 312.28125 -91.992188 316.617188 -90.78125 320.453125 -89.5625 C 324.285156 -88.351562 328.21875 -86.941406 332.25 -85.328125 L 341.328125 -79.28125 C 345.765625 -76.851562 349.597656 -73.421875 352.828125 -68.984375 C 353.628906 -68.179688 353.828125 -67.78125 353.421875 -67.78125 C 353.023438 -67.78125 353.226562 -66.769531 354.03125 -64.75 Z M 263.859375 -98.046875 L 270.515625 -118.609375 C 271.328125 -121.441406 272.234375 -124.570312 273.234375 -128 C 274.242188 -131.425781 275.15625 -134.550781 275.96875 -137.375 C 276.769531 -138.582031 277.375 -139.789062 277.78125 -141 C 278.1875 -142.21875 278.585938 -143.429688 278.984375 -144.640625 L 281.40625 -153.109375 L 286.25 -168.84375 L 295.328125 -199.71875 C 296.535156 -203.34375 297.847656 -207.273438 299.265625 -211.515625 C 300.679688 -215.753906 302.191406 -219.484375 303.796875 -222.703125 C 304.203125 -225.929688 305.3125 -230.671875 307.125 -236.921875 C 308.945312 -243.179688 310.257812 -247.925781 311.0625 -251.15625 L 308.046875 -251.15625 C 306.828125 -249.539062 304.203125 -246.816406 300.171875 -242.984375 C 296.140625 -239.148438 293.113281 -236.425781 291.09375 -234.8125 C 290.289062 -232.789062 289.082031 -230.875 287.46875 -229.0625 C 285.851562 -227.25 284.035156 -225.535156 282.015625 -223.921875 C 279.992188 -222.304688 278.078125 -220.488281 276.265625 -218.46875 C 274.453125 -216.457031 272.738281 -214.441406 271.125 -212.421875 C 268.300781 -210.003906 265.675781 -207.882812 263.25 -206.0625 C 260.832031 -204.25 258.414062 -202.132812 256 -199.71875 C 253.976562 -198.101562 252.160156 -196.285156 250.546875 -194.265625 C 248.929688 -192.242188 247.113281 -189.820312 245.09375 -187 C 244.289062 -186.195312 243.179688 -185.1875 241.765625 -183.96875 C 240.359375 -182.757812 239.050781 -181.347656 237.84375 -179.734375 C 236.226562 -177.316406 234.207031 -175.300781 231.78125 -173.6875 C 229.769531 -172.070312 227.957031 -170.554688 226.34375 -169.140625 C 224.726562 -167.734375 223.316406 -165.820312 222.109375 -163.40625 C 220.492188 -161.382812 218.578125 -159.460938 216.359375 -157.640625 C 214.140625 -155.828125 212.222656 -153.914062 210.609375 -151.90625 C 209.398438 -151.09375 208.390625 -150.382812 207.578125 -149.78125 C 206.773438 -149.175781 205.96875 -147.863281 205.15625 -145.84375 C 203.539062 -145.039062 202.128906 -143.929688 200.921875 -142.515625 C 199.710938 -141.109375 198.503906 -139.597656 197.296875 -137.984375 L 191.84375 -130.109375 C 187.8125 -125.273438 183.976562 -120.632812 180.34375 -116.1875 C 176.71875 -111.75 172.882812 -107.3125 168.84375 -102.875 C 172.070312 -103.28125 175 -103.378906 177.625 -103.171875 C 180.25 -102.972656 182.566406 -103.078125 184.578125 -103.484375 C 187.804688 -102.679688 190.929688 -102.28125 193.953125 -102.28125 C 196.984375 -102.28125 199.910156 -102.078125 202.734375 -101.671875 C 205.160156 -102.078125 207.484375 -102.175781 209.703125 -101.96875 C 211.921875 -101.769531 214.238281 -101.875 216.65625 -102.28125 C 221.5 -101.070312 226.539062 -100.664062 231.78125 -101.0625 C 234.207031 -100.664062 236.628906 -100.46875 239.046875 -100.46875 C 241.472656 -100.46875 244.296875 -100.265625 247.515625 -99.859375 Z M 263.859375 -98.046875 "/></g></g></g></svg>